<svg xmlns="http://www.w3.org/2000/svg" xmlns:xlink="http://www.w3.org/1999/xlink"><symbol id="chevron-right" viewBox="0 0 512 512">
<path d="M298.3,256L298.3,256L298.3,256L131.1,81.9c-4.2-4.3-4.1-11.4,0.2-15.8l29.9-30.6c4.3-4.4,11.3-4.5,15.5-0.2l204.2,212.7
	c2.2,2.2,3.2,5.2,3,8.1c0.1,3-0.9,5.9-3,8.1L176.7,476.8c-4.2,4.3-11.2,4.2-15.5-0.2L131.3,446c-4.3-4.4-4.4-11.5-0.2-15.8
	L298.3,256z"/>
</symbol><symbol id="imgs"/><symbol id="logo" viewBox="0 0 120 105">
<rect fill="currentColor" x="1.5" y="0" width="117" height="105"/>
<g>
	<path class="st0" d="M32.5,38.8v19.4h6.7v3.2H29V38.8H32.5z"/>
	<path class="st0" d="M41,54.1c0-2.1,0.7-3.8,2.2-5.3s3.3-2.2,5.4-2.2c2.1,0,3.9,0.7,5.4,2.2c1.5,1.5,2.2,3.2,2.2,5.4
		c0,2.1-0.7,3.9-2.2,5.4c-1.5,1.4-3.3,2.2-5.5,2.2c-2.1,0-3.9-0.7-5.4-2.2C41.8,58.1,41,56.3,41,54.1z M44.4,54.2
		c0,1.4,0.4,2.6,1.1,3.4c0.8,0.8,1.8,1.3,3.1,1.3c1.3,0,2.3-0.4,3.1-1.2s1.2-1.9,1.2-3.3s-0.4-2.5-1.2-3.3c-0.8-0.8-1.8-1.3-3.1-1.3
		c-1.3,0-2.3,0.4-3.1,1.3S44.4,52.9,44.4,54.2z"/>
	<path class="st0" d="M73.5,61c0,0.7,0,1.3-0.1,1.8s-0.1,1-0.2,1.4c-0.2,1.1-0.7,2-1.4,2.8c-1.3,1.5-3.1,2.2-5.3,2.2
		c-1.9,0-3.5-0.5-4.7-1.5c-1.3-1.1-2-2.5-2.2-4.4H63c0.1,0.7,0.3,1.2,0.6,1.6c0.7,0.9,1.7,1.3,3,1.3c2.4,0,3.6-1.5,3.6-4.4v-2
		c-1.3,1.3-2.8,2-4.5,2c-1.9,0-3.5-0.7-4.8-2.1c-1.2-1.4-1.9-3.2-1.9-5.3c0-2.1,0.6-3.8,1.7-5.3c1.2-1.5,2.9-2.3,5-2.3
		c1.8,0,3.3,0.7,4.5,2v-1.6h3.3V61z M70.4,54.3c0-1.4-0.4-2.5-1.1-3.3c-0.8-0.8-1.7-1.3-2.9-1.3c-1.2,0-2.2,0.5-3,1.4
		c-0.7,0.8-1,1.9-1,3.2c0,1.3,0.3,2.4,1,3.2c0.7,0.9,1.7,1.4,3,1.4s2.3-0.5,3-1.4C70,56.6,70.4,55.6,70.4,54.3z"/>
	<path class="st0" d="M77,54.1c0-2.1,0.7-3.8,2.2-5.3s3.3-2.2,5.4-2.2c2.1,0,3.9,0.7,5.4,2.2c1.5,1.5,2.2,3.2,2.2,5.4
		c0,2.1-0.7,3.9-2.2,5.4c-1.5,1.4-3.3,2.2-5.5,2.2c-2.1,0-3.9-0.7-5.4-2.2C77.8,58.1,77,56.3,77,54.1z M80.4,54.2
		c0,1.4,0.4,2.6,1.1,3.4c0.8,0.8,1.8,1.3,3.1,1.3c1.3,0,2.3-0.4,3.1-1.2s1.2-1.9,1.2-3.3s-0.4-2.5-1.2-3.3c-0.8-0.8-1.8-1.3-3.1-1.3
		c-1.3,0-2.3,0.4-3.1,1.3S80.4,52.9,80.4,54.2z"/>
</g>
</symbol><symbol id="social-facebook" viewBox="0 0 512 512">
<path d="M288,192v-38.1c0-17.2,3.8-25.9,30.5-25.9H352V64h-55.9c-68.5,0-91.1,31.4-91.1,85.3V192h-45v64h45v192h83V256h56.4l7.6-64
	H288z"/>
</symbol><symbol id="social-googleplus" viewBox="0 0 512 512">
<g>
	<path d="M242.1,275.6l-18.2-13.7l-0.1-0.1c-5.8-4.6-10-8.3-10-14.7c0-7,5-11.8,10.9-17.4l0.5-0.4c20-15.2,44.7-34.3,44.7-74.6
		c0-26.9-11.9-44.7-23.3-57.7h13L320,64H186.5c-25.3,0-62.7,3.2-94.6,28.6l-0.1,0.3C70,110.9,57,137.4,57,163.5
		c0,21.2,8.7,42.2,23.9,57.4c21.4,21.6,48.3,26.1,67.1,26.1c1.5,0,3,0,4.5-0.1c-0.8,3-1.2,6.3-1.2,10.3c0,10.9,3.6,19.3,8.1,26.2
		c-24,1.9-58.1,6.5-84.9,22.3C35.1,328.4,32,361.7,32,371.3c0,38.2,35.7,76.8,115.5,76.8c91.6,0,139.5-49.8,139.5-99
		C287,312,264.2,293.5,242.1,275.6z M116.7,139.9c0-13.4,3-23.5,9.3-30.9c6.5-7.9,18.2-13.1,29-13.1c19.9,0,32.9,15,40.4,27.6
		c9.2,15.5,14.9,36.1,14.9,53.6c0,4.9,0,20-10.2,29.8c-7,6.7-18.7,11.4-28.6,11.4c-20.5,0-33.5-14.7-40.7-27
		C120.4,173.5,116.7,153.1,116.7,139.9z M237.8,368c0,27.4-25.2,44.5-65.8,44.5c-48.1,0-80.3-20.6-80.3-51.3
		c0-26.1,21.5-36.8,37.8-42.5c18.9-6.1,44.3-7.3,50.1-7.3c3.9,0,6.1,0,8.7,0.2C224.9,336.8,237.8,347.7,237.8,368z"/>
	<polygon points="402,142 402,64 368,64 368,142 288,142 288,176 368,176 368,257 402,257 402,176 480,176 480,142 	"/>
</g>
</symbol><symbol id="social-instagram" viewBox="0 0 512 512">
<g>
	<circle cx="256" cy="255.833" r="80"/>
</g>
<g>
	<path d="M177.805,176.887c21.154-21.154,49.279-32.929,79.195-32.929s58.041,11.837,79.195,32.991
		c13.422,13.422,23.011,29.551,28.232,47.551H448.5v-113c0-26.51-20.49-47-47-47h-288c-26.51,0-49,20.49-49,47v113h85.072
		C154.794,206.5,164.383,190.309,177.805,176.887z M416.5,147.7c0,7.069-5.73,12.8-12.8,12.8h-38.4c-7.069,0-12.8-5.73-12.8-12.8
		v-38.4c0-7.069,5.73-12.8,12.8-12.8h38.4c7.069,0,12.8,5.73,12.8,12.8V147.7z"/>
	<path d="M336.195,335.279c-21.154,21.154-49.279,32.679-79.195,32.679s-58.041-11.462-79.195-32.616
		c-21.115-21.115-32.759-49.842-32.803-78.842H64.5v143c0,26.51,22.49,49,49,49h288c26.51,0,47-22.49,47-49v-143h-79.502
		C368.955,285.5,357.311,314.164,336.195,335.279z"/>
</g>
</symbol><symbol id="social-linkedin" viewBox="0 0 512 512">
<g>
	<path d="M417.2,64H96.8C79.3,64,64,76.6,64,93.9v321.1c0,17.4,15.3,32.9,32.8,32.9h320.3c17.6,0,30.8-15.6,30.8-32.9V93.9
		C448,76.6,434.7,64,417.2,64z M183,384h-55V213h55V384z M157.4,187H157c-17.6,0-29-13.1-29-29.5c0-16.7,11.7-29.5,29.7-29.5
		c18,0,29,12.7,29.4,29.5C187.1,173.9,175.7,187,157.4,187z M384,384h-55v-93.5c0-22.4-8-37.7-27.9-37.7
		c-15.2,0-24.2,10.3-28.2,20.3c-1.5,3.6-1.9,8.5-1.9,13.5V384h-55V213h55v23.8c8-11.4,20.5-27.8,49.6-27.8
		c36.1,0,63.4,23.8,63.4,75.1V384z"/>
</g>
</symbol><symbol id="social-pinterest" viewBox="0 0 512 512">
<g>
	<path d="M256,32C132.3,32,32,132.3,32,256c0,91.7,55.2,170.5,134.1,205.2c-0.6-15.6-0.1-34.4,3.9-51.4
		c4.3-18.2,28.8-122.1,28.8-122.1s-7.2-14.3-7.2-35.4c0-33.2,19.2-58,43.2-58c20.4,0,30.2,15.3,30.2,33.6
		c0,20.5-13.1,51.1-19.8,79.5c-5.6,23.8,11.9,43.1,35.4,43.1c42.4,0,71-54.5,71-119.1c0-49.1-33.1-85.8-93.2-85.8
		c-67.9,0-110.3,50.7-110.3,107.3c0,19.5,5.8,33.3,14.8,43.9c4.1,4.9,4.7,6.9,3.2,12.5c-1.1,4.1-3.5,14-4.6,18
		c-1.5,5.7-6.1,7.7-11.2,5.6c-31.3-12.8-45.9-47-45.9-85.6c0-63.6,53.7-139.9,160.1-139.9c85.5,0,141.8,61.9,141.8,128.3
		c0,87.9-48.9,153.5-120.9,153.5c-24.2,0-46.9-13.1-54.7-27.9c0,0-13,51.6-15.8,61.6c-4.7,17.3-14,34.5-22.5,48
		c20.1,5.9,41.4,9.2,63.5,9.2c123.7,0,224-100.3,224-224C480,132.3,379.7,32,256,32z"/>
</g>
</symbol><symbol id="social-twitter" viewBox="0 0 512 512">
<path d="M492,109.5c-17.4,7.7-36,12.9-55.6,15.3c20-12,35.4-31,42.6-53.6c-18.7,11.1-39.4,19.2-61.5,23.5
	C399.8,75.8,374.6,64,346.8,64c-53.5,0-96.8,43.4-96.8,96.9c0,7.6,0.8,15,2.5,22.1c-80.5-4-151.9-42.6-199.6-101.3
	c-8.3,14.3-13.1,31-13.1,48.7c0,33.6,17.2,63.3,43.2,80.7C67,210.7,52,206.3,39,199c0,0.4,0,0.8,0,1.2c0,47,33.4,86.1,77.7,95
	c-8.1,2.2-16.7,3.4-25.5,3.4c-6.2,0-12.3-0.6-18.2-1.8c12.3,38.5,48.1,66.5,90.5,67.3c-33.1,26-74.9,41.5-120.3,41.5
	c-7.8,0-15.5-0.5-23.1-1.4C62.8,432,113.7,448,168.3,448C346.6,448,444,300.3,444,172.2c0-4.2-0.1-8.4-0.3-12.5
	C462.6,146,479,129,492,109.5z"/>
</symbol><symbol id="social-youtube" viewBox="0 0 512 512">
<g>
	<path d="M508.6,148.8c0-45-33.1-81.2-74-81.2C379.2,65,322.7,64,265,64c-3,0-6,0-9,0s-6,0-9,0c-57.6,0-114.2,1-169.6,3.6
		c-40.8,0-73.9,36.4-73.9,81.4C1,184.6-0.1,220.2,0,255.8C-0.1,291.4,1,327,3.4,362.7c0,45,33.1,81.5,73.9,81.5
		c58.2,2.7,117.9,3.9,178.6,3.8c60.8,0.2,120.3-1,178.6-3.8c40.9,0,74-36.5,74-81.5c2.4-35.7,3.5-71.3,3.4-107
		C512.1,220.1,511,184.5,508.6,148.8z M207,353.9V157.4l145,98.2L207,353.9z"/>
</g>
</symbol></svg>