<?xml version="1.0" encoding="utf-8"?>
<!-- Generator: Adobe Illustrator 20.1.0, SVG Export Plug-In . SVG Version: 6.00 Build 0)  -->
<svg version="1.1" id="Layer_1" xmlns="http://www.w3.org/2000/svg" xmlns:xlink="http://www.w3.org/1999/xlink" x="0px" y="0px"
	 viewBox="0 0 120 105" style="enable-background:new 0 0 120 105;" xml:space="preserve">
<rect fill="currentColor" x="1.5" y="0" width="117" height="105"/>
<g>
	<path class="st0" d="M32.5,38.8v19.4h6.7v3.2H29V38.8H32.5z"/>
	<path class="st0" d="M41,54.1c0-2.1,0.7-3.8,2.2-5.3s3.3-2.2,5.4-2.2c2.1,0,3.9,0.7,5.4,2.2c1.5,1.5,2.2,3.2,2.2,5.4
		c0,2.1-0.7,3.9-2.2,5.4c-1.5,1.4-3.3,2.2-5.5,2.2c-2.1,0-3.9-0.7-5.4-2.2C41.8,58.1,41,56.3,41,54.1z M44.4,54.2
		c0,1.4,0.4,2.6,1.1,3.4c0.8,0.8,1.8,1.3,3.1,1.3c1.3,0,2.3-0.4,3.1-1.2s1.2-1.9,1.2-3.3s-0.4-2.5-1.2-3.3c-0.8-0.8-1.8-1.3-3.1-1.3
		c-1.3,0-2.3,0.4-3.1,1.3S44.4,52.9,44.4,54.2z"/>
	<path class="st0" d="M73.5,61c0,0.7,0,1.3-0.1,1.8s-0.1,1-0.2,1.4c-0.2,1.1-0.7,2-1.4,2.8c-1.3,1.5-3.1,2.2-5.3,2.2
		c-1.9,0-3.5-0.5-4.7-1.5c-1.3-1.1-2-2.5-2.2-4.4H63c0.1,0.7,0.3,1.2,0.6,1.6c0.7,0.9,1.7,1.3,3,1.3c2.4,0,3.6-1.5,3.6-4.4v-2
		c-1.3,1.3-2.8,2-4.5,2c-1.9,0-3.5-0.7-4.8-2.1c-1.2-1.4-1.9-3.2-1.9-5.3c0-2.1,0.6-3.8,1.7-5.3c1.2-1.5,2.9-2.3,5-2.3
		c1.8,0,3.3,0.7,4.5,2v-1.6h3.3V61z M70.4,54.3c0-1.4-0.4-2.5-1.1-3.3c-0.8-0.8-1.7-1.3-2.9-1.3c-1.2,0-2.2,0.5-3,1.4
		c-0.7,0.8-1,1.9-1,3.2c0,1.3,0.3,2.4,1,3.2c0.7,0.9,1.7,1.4,3,1.4s2.3-0.5,3-1.4C70,56.6,70.4,55.6,70.4,54.3z"/>
	<path class="st0" d="M77,54.1c0-2.1,0.7-3.8,2.2-5.3s3.3-2.2,5.4-2.2c2.1,0,3.9,0.7,5.4,2.2c1.5,1.5,2.2,3.2,2.2,5.4
		c0,2.1-0.7,3.9-2.2,5.4c-1.5,1.4-3.3,2.2-5.5,2.2c-2.1,0-3.9-0.7-5.4-2.2C77.8,58.1,77,56.3,77,54.1z M80.4,54.2
		c0,1.4,0.4,2.6,1.1,3.4c0.8,0.8,1.8,1.3,3.1,1.3c1.3,0,2.3-0.4,3.1-1.2s1.2-1.9,1.2-3.3s-0.4-2.5-1.2-3.3c-0.8-0.8-1.8-1.3-3.1-1.3
		c-1.3,0-2.3,0.4-3.1,1.3S80.4,52.9,80.4,54.2z"/>
</g>
</svg>
